<svg width="32" height="32" viewBox="0 0 32 32" fill="none" xmlns="http://www.w3.org/2000/svg">
<path d="M31.5239 6.91936C30.4106 7.41269 29.2146 7.74602 27.9573 7.89669C29.2546 7.12041 30.2252 5.89865 30.6879 4.45936C29.4691 5.18334 28.1351 5.69295 26.7439 5.96602C25.8084 4.96718 24.5694 4.30513 23.219 4.08266C21.8687 3.86019 20.4827 4.08975 19.2763 4.73569C18.0698 5.38164 17.1103 6.40784 16.5468 7.65496C15.9833 8.90209 15.8473 10.3004 16.1599 11.6327C13.6902 11.5087 11.2741 10.8668 9.0685 9.74856C6.8629 8.63037 4.91706 7.06091 3.35727 5.14202C2.82393 6.06202 2.51727 7.12869 2.51727 8.26469C2.51667 9.28735 2.76851 10.2943 3.25044 11.1963C3.73237 12.0983 4.42948 12.8674 5.27993 13.4354C4.29364 13.404 3.3291 13.1375 2.4666 12.658V12.738C2.4665 14.1723 2.96264 15.5625 3.87084 16.6727C4.77905 17.7828 6.04336 18.5446 7.44927 18.8287C6.53431 19.0763 5.57505 19.1128 4.64393 18.9354C5.0406 20.1695 5.81326 21.2487 6.85376 22.0219C7.89425 22.7951 9.15049 23.2236 10.4466 23.2474C8.24638 24.9746 5.52912 25.9115 2.73193 25.9074C2.23644 25.9075 1.74137 25.8786 1.24927 25.8207C4.08857 27.6463 7.39372 28.6151 10.7693 28.6114C22.1959 28.6114 28.4426 19.1474 28.4426 10.9394C28.4426 10.6727 28.4359 10.4034 28.4239 10.1367C29.639 9.25799 30.6878 8.16989 31.5213 6.92336L31.5239 6.91936V6.91936Z" fill="white"/>
</svg>
